<?xml version="1.0" standalone="no"?>
<!DOCTYPE svg PUBLIC "-//W3C//DTD SVG 20010904//EN"
 "http://www.w3.org/TR/2001/REC-SVG-20010904/DTD/svg10.dtd">
<svg version="1.0" xmlns="http://www.w3.org/2000/svg"
 width="474.000000pt" height="474.000000pt" viewBox="0 0 474.000000 474.000000"
 preserveAspectRatio="xMidYMid meet">
<metadata>
Created by potrace 1.14, written by Peter Selinger 2001-2017
</metadata>
<g transform="translate(0.000000,474.000000) scale(0.100000,-0.100000)"
fill="#000000" stroke="none">
<path d="M2250 3755 l0 -75 -105 -83 -105 -82 0 -117 0 -118 330 0 330 0 0
118 0 117 -105 82 -105 83 0 75 0 75 -120 0 -120 0 0 -75z m190 -39 l0 -65
105 -82 c157 -123 163 -119 -175 -119 -337 0 -331 -4 -175 119 l105 82 0 64 0
65 70 0 70 0 0 -64z m210 -351 l0 -25 -280 0 -280 0 0 25 0 25 280 0 280 0 0
-25z"/>
<path d="M1620 3337 c0 -93 0 -95 -25 -101 -30 -8 -65 -60 -65 -96 0 -43 35
-88 78 -101 107 -32 184 97 105 175 -14 14 -32 26 -39 26 -10 0 -14 24 -16 92
-3 79 -6 93 -20 96 -16 3 -18 -6 -18 -91z m65 -152 c14 -13 25 -33 25 -45 0
-27 -43 -70 -70 -70 -27 0 -70 43 -70 70 0 27 43 70 70 70 12 0 32 -11 45 -25z"/>
<path d="M1800 3339 c0 -45 -5 -97 -11 -114 -22 -60 12 -110 49 -73 14 14 16
60 2 74 -5 5 -10 49 -12 98 -2 60 -7 91 -15 94 -10 3 -13 -17 -13 -79z"/>
<path d="M1900 3339 c0 -58 -4 -85 -15 -95 -19 -20 -19 -78 -1 -94 8 -6 25
-10 38 -8 20 3 23 10 26 51 2 35 -1 49 -12 53 -13 5 -16 23 -16 90 0 49 -4 84
-10 84 -6 0 -10 -34 -10 -81z m-3 -161 c-2 -13 -4 -5 -4 17 -1 22 1 32 4 23 2
-10 2 -28 0 -40z m33 23 c0 -17 -4 -33 -10 -36 -6 -4 -10 8 -10 29 0 20 5 36
10 36 6 0 10 -13 10 -29z"/>
<path d="M2995 3181 c-29 -12 -54 -43 -65 -80 -7 -24 -5 -33 8 -40 13 -8 14
-12 3 -25 -17 -21 -7 -46 19 -46 15 0 20 7 20 24 0 14 -5 28 -11 31 -7 5 -5
11 5 18 8 7 16 21 18 32 2 14 12 21 36 23 27 3 34 -1 42 -24 6 -15 10 -53 8
-83 l-3 -56 -262 -3 c-173 -1 -263 1 -263 8 0 6 -26 10 -60 10 -33 0 -60 -4
-60 -10 0 -6 -27 -10 -60 -10 -33 0 -60 4 -60 10 0 6 -28 10 -65 10 -37 0 -65
-4 -65 -10 0 -6 -115 -10 -325 -10 l-325 0 0 -360 0 -360 835 0 835 0 0 360 0
360 -34 0 -34 0 1 83 c2 94 -14 128 -65 146 -36 13 -45 13 -73 2z m-965 -591
l0 -310 -225 0 -225 0 0 310 0 310 225 0 225 0 0 -310z m620 0 l0 -310 -280 0
-280 0 0 310 0 310 280 0 280 0 0 -310z m500 0 l0 -310 -225 0 -225 0 0 310 0
310 225 0 225 0 0 -310z"/>
<path d="M1967 2814 c-4 -4 -7 -115 -7 -246 0 -187 3 -239 13 -236 9 4 13 62
15 238 2 214 -2 263 -21 244z"/>
<path d="M2156 2845 c-9 -24 4 -45 29 -45 13 0 25 7 29 15 9 24 -4 45 -29 45
-13 0 -25 -7 -29 -15z"/>
<path d="M2277 2846 c-11 -28 4 -47 32 -44 20 2 26 8 26 28 0 20 -6 26 -26 28
-17 2 -29 -3 -32 -12z"/>
<path d="M2407 2854 c-4 -4 -7 -18 -7 -31 0 -21 4 -24 28 -21 21 2 27 8 27 28
0 18 -6 26 -20 28 -12 2 -24 0 -28 -4z"/>
<path d="M2524 2846 c-10 -26 4 -48 28 -44 17 2 23 10 23 28 0 18 -6 26 -23
28 -13 2 -25 -3 -28 -12z"/>
<path d="M2130 2745 c-10 -12 -10 -16 2 -20 7 -3 117 -4 243 -3 197 3 230 5
230 18 0 23 -456 28 -475 5z"/>
<path d="M2120 2495 l0 -195 245 0 245 0 0 195 0 195 -245 0 -245 0 0 -195z
m450 0 l0 -155 -205 0 -205 0 0 155 0 155 205 0 205 0 0 -155z"/>
<path d="M2752 2808 c-14 -14 -17 -445 -3 -467 5 -7 14 -10 20 -7 13 9 16 472
3 480 -5 3 -14 0 -20 -6z"/>
<path d="M1090 1570 l0 -410 80 0 80 0 0 190 c0 204 5 232 52 264 35 25 102
20 135 -8 l28 -24 5 -209 5 -208 83 -3 82 -3 0 206 c0 117 -5 225 -11 250 -6
24 -27 62 -46 84 -63 75 -192 91 -289 37 l-44 -25 0 135 0 134 -80 0 -80 0 0
-410z"/>
<path d="M2674 1955 c-60 -30 -101 -88 -110 -157 -6 -47 -8 -48 -40 -48 l-34
0 0 -70 0 -70 35 0 35 0 0 -225 0 -225 80 0 80 0 0 225 0 225 55 0 55 0 0 70
0 70 -55 0 c-60 0 -62 3 -41 55 11 27 22 35 49 40 20 4 44 4 55 1 18 -6 21 -1
24 56 2 35 2 66 0 71 -2 4 -34 7 -71 7 -51 0 -79 -6 -117 -25z"/>
<path d="M520 1959 c-69 -13 -164 -65 -218 -117 -28 -27 -63 -77 -83 -117 -32
-65 -34 -76 -34 -170 0 -92 3 -105 32 -166 95 -195 336 -289 541 -211 69 27
153 91 191 146 l31 44 -78 30 -77 30 -43 -40 c-65 -60 -122 -82 -197 -76 -69
6 -109 24 -154 69 -122 121 -95 307 57 396 37 22 58 27 111 27 77 0 117 -17
178 -77 l42 -40 73 28 c40 15 76 31 80 34 4 4 -13 31 -39 61 -109 124 -260
179 -413 149z"/>
<path d="M2960 1567 l0 -407 85 0 85 0 2 187 3 187 119 -138 119 -138 31 36
c17 19 69 80 116 135 l85 100 5 -182 5 -182 85 0 85 0 3 403 c1 221 -1 402 -5
401 -5 0 -97 -102 -207 -225 -109 -124 -202 -223 -206 -222 -4 2 -87 93 -185
203 -97 110 -188 211 -201 225 l-24 25 0 -408z"/>
<path d="M2014 1755 c-80 -17 -116 -37 -169 -90 -50 -50 -75 -117 -75 -205 0
-93 24 -156 83 -215 62 -61 119 -84 227 -92 98 -7 174 20 244 87 l49 47 -63
36 -63 35 -38 -25 c-101 -66 -240 -41 -272 50 -6 16 9 17 230 17 l236 0 -5 79
c-4 63 -10 89 -35 132 -67 120 -204 177 -349 144z m143 -152 c35 -16 77 -69
67 -85 -8 -12 -284 -10 -284 3 0 29 38 72 80 91 28 13 102 8 137 -9z"/>
<path d="M4172 1755 c-159 -35 -242 -137 -242 -295 0 -95 24 -155 84 -216 60
-60 118 -83 226 -91 62 -4 85 -1 134 17 61 23 164 107 149 121 -4 4 -33 21
-63 37 l-55 31 -42 -28 c-81 -55 -187 -48 -243 16 -17 18 -30 38 -30 43 0 6
91 10 236 10 l237 0 -5 79 c-4 63 -10 89 -35 132 -68 121 -204 177 -351 144z
m144 -151 c38 -18 64 -49 64 -76 0 -16 -13 -18 -140 -18 -127 0 -140 2 -140
18 1 70 131 116 216 76z"/>
<path d="M530 965 l0 -55 35 0 c39 0 48 17 13 22 -19 2 -24 10 -26 46 -5 61
-22 52 -22 -13z"/>
<path d="M690 965 l0 -55 35 0 c19 0 35 5 35 10 0 6 -11 10 -25 10 -16 0 -25
6 -25 15 0 9 9 15 25 15 14 0 25 5 25 10 0 6 -11 10 -25 10 -14 0 -25 5 -25
10 0 6 11 10 25 10 14 0 25 5 25 10 0 6 -16 10 -35 10 l-35 0 0 -55z"/>
<path d="M850 1010 c0 -5 7 -10 15 -10 11 0 15 -12 15 -45 0 -25 5 -45 10 -45
6 0 10 20 10 45 0 33 4 45 15 45 8 0 15 5 15 10 0 6 -18 10 -40 10 -22 0 -40
-4 -40 -10z"/>
<path d="M1149 991 c12 -16 21 -41 21 -55 0 -16 6 -26 15 -26 9 0 15 9 15 25
0 14 7 37 16 51 22 32 8 46 -15 15 l-19 -24 -11 21 c-6 12 -19 22 -27 22 -13
0 -12 -5 5 -29z"/>
<path d="M1326 1004 c-9 -8 -16 -26 -16 -39 0 -13 7 -31 16 -39 33 -34 94 -9
94 38 0 47 -62 73 -94 40z m68 -26 c8 -14 7 -21 -6 -34 -30 -30 -75 9 -48 42
16 18 39 15 54 -8z"/>
<path d="M1510 982 c0 -62 65 -100 90 -53 13 25 13 91 0 91 -5 0 -10 -15 -10
-34 0 -35 -21 -63 -40 -51 -5 3 -10 24 -10 46 0 28 -4 39 -15 39 -11 0 -15
-11 -15 -38z"/>
<path d="M1700 965 c0 -42 3 -55 15 -55 8 0 15 9 15 20 0 11 4 20 9 20 5 0 13
-9 16 -20 11 -34 23 -22 21 23 -2 54 -10 67 -47 67 -29 0 -29 -1 -29 -55z m52
20 c0 -5 -5 -11 -11 -13 -6 -2 -11 4 -11 13 0 9 5 15 11 13 6 -2 11 -8 11 -13z"/>
<path d="M1990 965 c0 -42 3 -55 15 -55 12 0 15 13 15 55 0 42 -3 55 -15 55
-12 0 -15 -13 -15 -55z"/>
<path d="M2110 965 c0 -62 17 -75 22 -17 l3 37 23 -37 c13 -21 28 -38 33 -38
5 0 9 25 9 55 0 30 -4 55 -10 55 -5 0 -10 -15 -10 -32 l0 -33 -21 33 c-32 50
-49 42 -49 -23z"/>
<path d="M2300 965 c0 -30 5 -55 10 -55 6 0 10 17 10 38 l1 37 22 -37 c32 -55
47 -49 47 17 0 59 -17 76 -22 23 l-3 -33 -20 33 c-30 49 -45 41 -45 -23z"/>
<path d="M2480 965 l0 -55 40 0 c22 0 40 5 40 10 0 6 -11 10 -25 10 -16 0 -25
6 -25 15 0 9 10 15 26 15 14 0 23 4 19 10 -3 6 -15 10 -26 10 -10 0 -19 5 -19
10 0 6 11 10 25 10 14 0 25 5 25 10 0 6 -18 10 -40 10 l-40 0 0 -55z"/>
<path d="M2650 965 c0 -30 5 -55 10 -55 6 0 10 9 10 20 0 26 14 25 33 -2 17
-26 34 -19 19 8 -7 12 -7 25 0 37 13 25 -7 47 -43 47 -28 0 -29 -1 -29 -55z
m50 20 c0 -8 -7 -15 -15 -15 -8 0 -15 7 -15 15 0 8 7 15 15 15 8 0 15 -7 15
-15z"/>
<path d="M2958 1009 c-22 -13 -24 -62 -2 -83 19 -20 58 -21 73 -3 15 19 3 28
-20 14 -15 -9 -22 -8 -36 6 -26 25 -5 53 36 49 33 -2 42 12 15 22 -22 9 -46 7
-66 -5z"/>
<path d="M3130 965 c0 -30 5 -55 10 -55 6 0 10 11 10 25 0 18 5 25 20 25 15 0
20 -7 20 -25 0 -14 5 -25 10 -25 6 0 10 25 10 55 0 30 -4 55 -10 55 -5 0 -10
-9 -10 -20 0 -13 -7 -20 -20 -20 -13 0 -20 7 -20 20 0 11 -4 20 -10 20 -5 0
-10 -25 -10 -55z"/>
<path d="M3310 965 l0 -55 35 0 c19 0 35 5 35 10 0 6 -11 10 -25 10 -16 0 -25
6 -25 15 0 9 9 15 25 15 14 0 25 5 25 10 0 6 -11 10 -25 10 -14 0 -25 5 -25
10 0 6 11 10 25 10 14 0 25 5 25 10 0 6 -16 10 -35 10 l-35 0 0 -55z"/>
<path d="M3470 965 c0 -30 5 -55 10 -55 6 0 10 11 10 25 0 20 5 25 25 25 14 0
25 5 25 10 0 6 -11 10 -25 10 -14 0 -25 5 -25 10 0 6 11 10 25 10 14 0 25 5
25 10 0 6 -16 10 -35 10 l-35 0 0 -55z"/>
<path d="M3767 1002 c-22 -24 -21 -55 1 -75 37 -34 92 -11 92 38 0 50 -60 73
-93 37z m67 -24 c8 -14 7 -21 -6 -34 -30 -30 -75 9 -48 42 16 18 39 15 54 -8z"/>
<path d="M3950 987 c0 -60 53 -100 88 -65 14 14 16 98 2 98 -5 0 -10 -15 -10
-32 0 -42 -13 -63 -34 -55 -11 4 -16 19 -16 47 0 29 -4 40 -15 40 -10 0 -15
-10 -15 -33z"/>
<path d="M4140 1010 c0 -5 7 -10 15 -10 11 0 15 -12 15 -45 0 -25 5 -45 10
-45 6 0 10 20 10 45 0 33 4 45 15 45 8 0 15 5 15 10 0 6 -18 10 -40 10 -22 0
-40 -4 -40 -10z"/>
</g>
</svg>
