<?xml version="1.0" standalone="no"?>
<!DOCTYPE svg PUBLIC "-//W3C//DTD SVG 20010904//EN"
 "http://www.w3.org/TR/2001/REC-SVG-20010904/DTD/svg10.dtd">
<svg version="1.0" xmlns="http://www.w3.org/2000/svg"
 width="186.000000pt" height="186.000000pt" viewBox="0 0 186.000000 186.000000"
 preserveAspectRatio="xMidYMid meet">
<metadata>
Created by potrace 1.14, written by Peter Selinger 2001-2017
</metadata>
<g transform="translate(0.000000,186.000000) scale(0.100000,-0.100000)"
fill="#000000" stroke="none">
<path d="M830 1673 l-1 -78 -104 -80 c-57 -44 -105 -87 -106 -95 -4 -51 -3
-210 1 -211 3 -1 152 -2 333 -3 212 -1 327 2 328 9 1 5 2 55 3 110 2 114 16
92 -129 207 l-80 64 -3 77 -3 77 -119 0 -120 0 0 -77z m187 -28 c0 -27 1 -55
2 -62 1 -6 48 -48 106 -93 99 -78 125 -112 93 -122 -7 -2 -132 -4 -278 -3
-258 0 -265 1 -268 21 -2 15 23 41 106 105 l108 86 -2 54 c-1 30 0 58 3 62 3
4 32 7 66 5 l62 -3 2 -50z m213 -345 c5 -8 5 -21 0 -30 -7 -13 -43 -15 -277
-14 -147 1 -271 2 -275 3 -12 2 -10 49 2 53 5 2 130 3 276 3 216 -1 267 -4
274 -15z"/>
<path d="M207 1344 c-4 -4 -7 -46 -7 -93 0 -84 -1 -86 -27 -98 -106 -47 -54
-213 61 -196 45 6 86 51 90 97 3 31 -2 44 -26 72 -17 19 -36 34 -44 34 -10 0
-14 22 -16 92 -3 84 -12 111 -31 92z m62 -240 c27 -35 26 -59 -4 -89 -30 -30
-54 -31 -89 -4 -32 25 -34 64 -4 96 29 31 71 30 97 -3z"/>
<path d="M377 1248 c-3 -51 -8 -108 -12 -126 -12 -55 34 -87 57 -37 8 18 8 32
-3 57 -7 18 -14 68 -14 112 0 52 -4 81 -12 83 -8 3 -13 -23 -16 -89z"/>
<path d="M480 1257 c0 -62 -4 -88 -15 -97 -16 -13 -15 -74 2 -91 6 -6 21 -9
34 -7 21 3 24 9 27 48 2 30 -1 48 -11 55 -11 8 -14 31 -14 90 1 53 -3 80 -11
83 -9 3 -12 -19 -12 -81z m35 -144 c0 -18 -5 -33 -11 -33 -14 0 -14 31 0 50
10 13 9 13 -7 1 -10 -8 -16 -20 -13 -27 3 -7 1 -16 -4 -19 -6 -4 -10 9 -10 28
0 29 3 34 23 33 18 -1 22 -7 22 -33z"/>
<path d="M1583 1099 c-40 -12 -73 -53 -73 -91 0 -17 4 -27 10 -23 13 8 13 -11
-1 -36 -12 -24 4 -51 27 -42 16 6 19 49 4 58 -14 9 -13 26 2 23 6 -2 14 6 16
17 6 26 31 43 54 37 28 -7 32 -21 34 -99 l1 -73 -264 0 c-169 0 -263 4 -263
10 0 6 -27 10 -60 10 -33 0 -60 -4 -60 -10 0 -6 -26 -10 -59 -10 -33 0 -63 5
-66 10 -3 6 -30 10 -60 10 -30 0 -57 -4 -60 -10 -4 -6 -125 -10 -331 -10
l-324 0 0 -360 0 -360 835 0 835 0 1 28 c1 32 1 661 0 680 -1 7 -15 12 -35 12
l-33 0 0 78 c1 92 -17 135 -64 151 -18 6 -32 11 -33 10 -1 0 -15 -5 -33 -10z
m-968 -589 l0 -310 -225 2 -225 3 -2 295 c-1 162 0 301 2 308 3 9 58 12 227
12 l223 0 0 -310z m610 -2 l1 -308 -278 0 c-153 0 -278 3 -278 8 -1 13 -1 382
-1 499 l1 113 278 -3 277 -2 0 -307z m505 2 l0 -310 -225 0 c-207 0 -225 1
-226 18 -1 20 0 522 0 570 l1 32 225 0 225 0 0 -310z"/>
<path d="M544 724 c-14 -29 -10 -452 4 -466 7 -7 14 -9 18 -5 12 11 10 459 -2
475 -10 14 -12 13 -20 -4z"/>
<path d="M1116 777 c-26 -19 -17 -52 14 -52 18 0 26 6 28 21 4 30 -20 47 -42
31z"/>
<path d="M740 765 c-17 -21 -5 -45 24 -45 26 0 36 14 28 43 -5 21 -35 22 -52
2z"/>
<path d="M865 772 c-27 -18 2 -58 34 -47 25 7 28 40 5 49 -20 8 -27 7 -39 -2z"/>
<path d="M981 762 c-12 -22 3 -42 30 -42 23 0 32 15 24 40 -8 25 -41 26 -54 2z"/>
<path d="M715 672 c-3 -3 -5 -11 -5 -19 0 -10 46 -13 234 -13 222 0 264 5 241
28 -8 8 -462 11 -470 4z"/>
<path d="M705 418 l0 -193 243 -2 242 -1 0 194 0 194 -243 0 -242 0 0 -192z
m446 147 c1 -18 1 -280 0 -292 -1 -10 -49 -13 -206 -13 l-205 0 0 153 c0 85 2
156 4 158 10 10 406 4 407 -6z"/>
<path d="M1334 728 c-14 -22 -11 -448 3 -467 6 -9 15 -13 18 -9 4 4 8 111 8
238 -1 221 -7 274 -29 238z"/>
</g>
</svg>
